<svg id="visual" viewBox="0 0 960 540" width="960" height="540" xmlns="http://www.w3.org/2000/svg" xmlns:xlink="http://www.w3.org/1999/xlink" version="1.1"><path d="M0 163L26.7 162.2C53.3 161.3 106.7 159.7 160 153.3C213.3 147 266.7 136 320 154.8C373.3 173.7 426.7 222.3 480 239.5C533.3 256.7 586.7 242.3 640 237C693.3 231.7 746.7 235.3 800 213.7C853.3 192 906.7 145 933.3 121.5L960 98L960 0L933.3 0C906.7 0 853.3 0 800 0C746.7 0 693.3 0 640 0C586.7 0 533.3 0 480 0C426.7 0 373.3 0 320 0C266.7 0 213.3 0 160 0C106.7 0 53.3 0 26.7 0L0 0Z" fill="#5772ff"></path><path d="M0 449L26.7 440C53.3 431 106.7 413 160 411.2C213.3 409.3 266.7 423.7 320 424.7C373.3 425.7 426.7 413.3 480 402.7C533.3 392 586.7 383 640 374C693.3 365 746.7 356 800 360.5C853.3 365 906.7 383 933.3 392L960 401L960 96L933.3 119.5C906.7 143 853.3 190 800 211.7C746.7 233.3 693.3 229.7 640 235C586.7 240.3 533.3 254.7 480 237.5C426.7 220.3 373.3 171.7 320 152.8C266.7 134 213.3 145 160 151.3C106.7 157.7 53.3 159.3 26.7 160.2L0 161Z" fill="#506bf8"></path><path d="M0 541L26.7 541C53.3 541 106.7 541 160 541C213.3 541 266.7 541 320 541C373.3 541 426.7 541 480 541C533.3 541 586.7 541 640 541C693.3 541 746.7 541 800 541C853.3 541 906.7 541 933.3 541L960 541L960 399L933.3 390C906.7 381 853.3 363 800 358.5C746.7 354 693.3 363 640 372C586.7 381 533.3 390 480 400.7C426.7 411.3 373.3 423.7 320 422.7C266.7 421.7 213.3 407.3 160 409.2C106.7 411 53.3 429 26.7 438L0 447Z" fill="#4964f1"></path></svg>